<svg width="90" height="90" viewBox="0 0 90 90" fill="none" xmlns="http://www.w3.org/2000/svg">
<path d="M82.5 79.6875C82.5 81.225 81.225 82.5 79.6875 82.5H10.3125C8.775 82.5 7.5 81.225 7.5 79.6875C7.5 78.15 8.775 76.875 10.3125 76.875H79.6875C81.225 76.875 82.5 78.15 82.5 79.6875Z" fill="#9D086D"/>
<path d="M57.7129 16.95L17.4379 57.225C15.9004 58.7625 13.4254 58.7625 11.9254 57.225H11.8879C6.67539 51.975 6.67539 43.5 11.8879 38.2875L38.7004 11.475C43.9504 6.22498 52.4254 6.22498 57.6754 11.475C59.2129 12.9375 59.2129 15.45 57.7129 16.95Z" fill="#9D086D"/>
<path d="M78.0754 31.8375L66.6379 20.4C65.1004 18.8625 62.6254 18.8625 61.1254 20.4L20.8504 60.675C19.3129 62.175 19.3129 64.65 20.8504 66.1875L32.2879 77.6625C37.5379 82.875 46.0129 82.875 51.2629 77.6625L78.0379 50.85C83.3629 45.6 83.3629 37.0875 78.0754 31.8375ZM47.8504 65.7L43.3129 70.275C42.3754 71.2125 40.8379 71.2125 39.8629 70.275C38.9254 69.3375 38.9254 67.8 39.8629 66.825L44.4379 62.25C45.3379 61.35 46.9129 61.35 47.8504 62.25C48.7879 63.1875 48.7879 64.8 47.8504 65.7ZM62.7379 50.8125L53.5879 60C52.6504 60.9 51.1129 60.9 50.1379 60C49.2004 59.0625 49.2004 57.525 50.1379 56.55L59.3254 47.3625C60.2254 46.4625 61.8004 46.4625 62.7379 47.3625C63.6754 48.3375 63.6754 49.875 62.7379 50.8125Z" fill="#9D086D"/>
</svg>
