<svg width="20" height="20" viewBox="0 0 20 20" fill="none" xmlns="http://www.w3.org/2000/svg">
<g id="vuesax/linear/empty-wallet">
<g id="Group">
<path id="Vector" d="M15.0333 11.2917C14.6833 11.6333 14.4833 12.125 14.5333 12.65C14.6083 13.55 15.4333 14.2083 16.3333 14.2083H17.9166V15.2C17.9166 16.925 16.5083 18.3333 14.7833 18.3333H5.21659C3.49159 18.3333 2.08325 16.925 2.08325 15.2V9.59168C2.08325 7.86668 3.49159 6.45834 5.21659 6.45834H14.7833C16.5083 6.45834 17.9166 7.86668 17.9166 9.59168V10.7917H16.2333C15.7666 10.7917 15.3416 10.975 15.0333 11.2917Z" stroke="#9D086D" stroke-width="1.5" stroke-linecap="round" stroke-linejoin="round"/>
<path id="Vector_2" d="M2.08325 10.3417V6.53337C2.08325 5.54171 2.69159 4.65834 3.61659 4.30834L10.2333 1.80834C11.2666 1.41667 12.3749 2.18336 12.3749 3.2917V6.45835" stroke="#9D086D" stroke-width="1.5" stroke-linecap="round" stroke-linejoin="round"/>
</g>
<path id="Vector_3" d="M18.7989 11.6418V13.3585C18.7989 13.8168 18.4323 14.1918 17.9656 14.2085H16.3323C15.4323 14.2085 14.6073 13.5501 14.5323 12.6501C14.4823 12.1251 14.6823 11.6335 15.0323 11.2918C15.3406 10.9751 15.7656 10.7918 16.2323 10.7918H17.9656C18.4323 10.8085 18.7989 11.1835 18.7989 11.6418Z" stroke="#9D086D" stroke-width="1.5" stroke-linecap="round" stroke-linejoin="round"/>
<path id="Vector_4" d="M5.83325 10H11.6666" stroke="#9D086D" stroke-width="1.5" stroke-linecap="round" stroke-linejoin="round"/>
</g>
</svg>
