<svg width="405" height="252" viewBox="0 0 405 252" fill="none" xmlns="http://www.w3.org/2000/svg">
<g filter="url(#filter0_d_203_2336)">
<rect x="50" y="46" width="306" height="152" rx="24" fill="#3E353B"/>
<rect x="51.5" y="47.5" width="303" height="149" rx="22.5" stroke="#B5170D" stroke-opacity="0.05" stroke-width="3"/>
</g>
<path d="M296.598 159.949V152.969H301.068V153.969H297.728V155.909H300.758V156.909H297.728V158.949H301.068V159.949H296.598ZM301.366 159.949L303.196 157.319L301.416 154.749H302.676L303.846 156.559H303.876L305.076 154.749H306.236L304.456 157.309L306.266 159.949H305.006L303.806 158.059H303.776L302.526 159.949H301.366ZM306.748 154.749H307.838V155.609H307.888C308.002 155.295 308.185 155.055 308.438 154.889C308.698 154.715 309.002 154.629 309.348 154.629C310.008 154.629 310.518 154.869 310.878 155.349C311.238 155.822 311.418 156.489 311.418 157.349C311.418 158.209 311.238 158.879 310.878 159.359C310.518 159.832 310.008 160.069 309.348 160.069C309.002 160.069 308.698 159.982 308.438 159.809C308.185 159.635 308.002 159.395 307.888 159.089H307.838V161.949H306.748V154.749ZM309.018 159.129C309.398 159.129 309.702 159.009 309.928 158.769C310.155 158.522 310.268 158.199 310.268 157.799V156.899C310.268 156.499 310.155 156.179 309.928 155.939C309.702 155.692 309.398 155.569 309.018 155.569C308.685 155.569 308.405 155.652 308.178 155.819C307.952 155.979 307.838 156.192 307.838 156.459V158.239C307.838 158.505 307.952 158.722 308.178 158.889C308.405 159.049 308.685 159.129 309.018 159.129ZM312.716 153.819C312.49 153.819 312.323 153.765 312.216 153.659C312.116 153.552 312.066 153.415 312.066 153.249V153.079C312.066 152.912 312.116 152.775 312.216 152.669C312.323 152.562 312.49 152.509 312.716 152.509C312.943 152.509 313.106 152.562 313.206 152.669C313.306 152.775 313.356 152.912 313.356 153.079V153.249C313.356 153.415 313.306 153.552 313.206 153.659C313.106 153.765 312.943 153.819 312.716 153.819ZM312.166 154.749H313.256V159.949H312.166V154.749ZM314.313 159.949V154.749H315.403V155.749H315.453C315.526 155.482 315.679 155.249 315.913 155.049C316.146 154.849 316.469 154.749 316.883 154.749H317.173V155.799H316.743C316.309 155.799 315.976 155.869 315.743 156.009C315.516 156.149 315.403 156.355 315.403 156.629V159.949H314.313ZM320.919 154.749H321.969L319.779 160.979C319.719 161.152 319.649 161.299 319.569 161.419C319.495 161.545 319.405 161.645 319.299 161.719C319.199 161.799 319.075 161.855 318.929 161.889C318.782 161.929 318.609 161.949 318.409 161.949H317.779V161.059H318.659L318.959 160.179L317.069 154.749H318.159L319.199 157.809L319.499 158.939H319.549L319.879 157.809L320.919 154.749ZM324.309 152.969H326.779C327.225 152.969 327.629 153.042 327.989 153.189C328.355 153.335 328.665 153.555 328.919 153.849C329.179 154.135 329.379 154.499 329.519 154.939C329.659 155.372 329.729 155.879 329.729 156.459C329.729 157.039 329.659 157.549 329.519 157.989C329.379 158.422 329.179 158.785 328.919 159.079C328.665 159.365 328.355 159.582 327.989 159.729C327.629 159.875 327.225 159.949 326.779 159.949H324.309V152.969ZM326.779 158.949C327.299 158.949 327.719 158.785 328.039 158.459C328.359 158.132 328.519 157.652 328.519 157.019V155.899C328.519 155.265 328.359 154.785 328.039 154.459C327.719 154.132 327.299 153.969 326.779 153.969H325.439V158.949H326.779ZM334.365 159.949C334.078 159.949 333.858 159.869 333.705 159.709C333.552 159.542 333.458 159.332 333.425 159.079H333.375C333.275 159.405 333.092 159.652 332.825 159.819C332.558 159.985 332.235 160.069 331.855 160.069C331.315 160.069 330.898 159.929 330.605 159.649C330.318 159.369 330.175 158.992 330.175 158.519C330.175 157.999 330.362 157.609 330.735 157.349C331.115 157.089 331.668 156.959 332.395 156.959H333.335V156.519C333.335 156.199 333.248 155.952 333.075 155.779C332.902 155.605 332.632 155.519 332.265 155.519C331.958 155.519 331.708 155.585 331.515 155.719C331.322 155.852 331.158 156.022 331.025 156.229L330.375 155.639C330.548 155.345 330.792 155.105 331.105 154.919C331.418 154.725 331.828 154.629 332.335 154.629C333.008 154.629 333.525 154.785 333.885 155.099C334.245 155.412 334.425 155.862 334.425 156.449V159.059H334.975V159.949H334.365ZM332.165 159.239C332.505 159.239 332.785 159.165 333.005 159.019C333.225 158.865 333.335 158.662 333.335 158.409V157.659H332.415C331.662 157.659 331.285 157.892 331.285 158.359V158.539C331.285 158.772 331.362 158.949 331.515 159.069C331.675 159.182 331.892 159.239 332.165 159.239ZM336.954 159.949C336.574 159.949 336.287 159.852 336.094 159.659C335.901 159.459 335.804 159.179 335.804 158.819V155.639H334.994V154.749H335.434C335.614 154.749 335.737 154.709 335.804 154.629C335.877 154.549 335.914 154.419 335.914 154.239V153.329H336.894V154.749H337.984V155.639H336.894V159.059H337.904V159.949H336.954ZM340.667 160.069C340.294 160.069 339.961 160.005 339.667 159.879C339.374 159.752 339.124 159.572 338.917 159.339C338.711 159.099 338.551 158.812 338.437 158.479C338.331 158.139 338.277 157.762 338.277 157.349C338.277 156.935 338.331 156.562 338.437 156.229C338.551 155.889 338.711 155.602 338.917 155.369C339.124 155.129 339.374 154.945 339.667 154.819C339.961 154.692 340.294 154.629 340.667 154.629C341.047 154.629 341.381 154.695 341.667 154.829C341.961 154.962 342.204 155.149 342.397 155.389C342.591 155.622 342.734 155.895 342.827 156.209C342.927 156.522 342.977 156.859 342.977 157.219V157.629H339.407V157.799C339.407 158.199 339.524 158.529 339.757 158.789C339.997 159.042 340.337 159.169 340.777 159.169C341.097 159.169 341.367 159.099 341.587 158.959C341.807 158.819 341.994 158.629 342.147 158.389L342.787 159.019C342.594 159.339 342.314 159.595 341.947 159.789C341.581 159.975 341.154 160.069 340.667 160.069ZM340.667 155.479C340.481 155.479 340.307 155.512 340.147 155.579C339.994 155.645 339.861 155.739 339.747 155.859C339.641 155.979 339.557 156.122 339.497 156.289C339.437 156.455 339.407 156.639 339.407 156.839V156.909H341.827V156.809C341.827 156.409 341.724 156.089 341.517 155.849C341.311 155.602 341.027 155.479 340.667 155.479Z" fill="white"/>
<path d="M72.5117 173.57L71.9117 171.578H69.1157L68.5157 173.57H66.6677L69.4277 165.194H71.6837L74.4077 173.57H72.5117ZM70.5317 166.85H70.4717L69.5477 170.03H71.4677L70.5317 166.85ZM74.9706 173.57V167.27H76.7466V168.338H76.8186C76.9306 168.01 77.1266 167.726 77.4066 167.486C77.6866 167.246 78.0746 167.126 78.5706 167.126C79.2186 167.126 79.7066 167.342 80.0346 167.774C80.3706 168.206 80.5386 168.822 80.5386 169.622V173.57H78.7626V169.766C78.7626 169.358 78.6986 169.058 78.5706 168.866C78.4426 168.666 78.2146 168.566 77.8866 168.566C77.7426 168.566 77.6026 168.586 77.4666 168.626C77.3306 168.658 77.2066 168.714 77.0946 168.794C76.9906 168.874 76.9066 168.974 76.8426 169.094C76.7786 169.206 76.7466 169.338 76.7466 169.49V173.57H74.9706ZM81.619 173.57V167.27H83.395V168.338H83.467C83.579 168.01 83.775 167.726 84.055 167.486C84.335 167.246 84.723 167.126 85.219 167.126C85.867 167.126 86.355 167.342 86.683 167.774C87.019 168.206 87.187 168.822 87.187 169.622V173.57H85.411V169.766C85.411 169.358 85.347 169.058 85.219 168.866C85.091 168.666 84.863 168.566 84.535 168.566C84.391 168.566 84.251 168.586 84.115 168.626C83.979 168.658 83.855 168.714 83.743 168.794C83.639 168.874 83.555 168.974 83.491 169.094C83.427 169.206 83.395 169.338 83.395 169.49V173.57H81.619ZM90.8955 173.714C90.4155 173.714 89.9875 173.638 89.6115 173.486C89.2355 173.326 88.9155 173.106 88.6515 172.826C88.3955 172.538 88.1995 172.19 88.0635 171.782C87.9355 171.374 87.8715 170.918 87.8715 170.414C87.8715 169.918 87.9355 169.47 88.0635 169.07C88.1915 168.662 88.3795 168.314 88.6275 168.026C88.8835 167.738 89.1955 167.518 89.5635 167.366C89.9315 167.206 90.3515 167.126 90.8235 167.126C91.3435 167.126 91.7875 167.214 92.1555 167.39C92.5315 167.566 92.8355 167.802 93.0675 168.098C93.3075 168.394 93.4795 168.738 93.5835 169.13C93.6955 169.514 93.7515 169.918 93.7515 170.342V170.87H89.7075V170.966C89.7075 171.382 89.8195 171.714 90.0435 171.962C90.2675 172.202 90.6195 172.322 91.0995 172.322C91.4675 172.322 91.7675 172.25 91.9995 172.106C92.2315 171.954 92.4475 171.774 92.6475 171.566L93.5355 172.67C93.2555 172.998 92.8875 173.254 92.4315 173.438C91.9835 173.622 91.4715 173.714 90.8955 173.714ZM90.8595 168.434C90.4995 168.434 90.2155 168.554 90.0075 168.794C89.8075 169.026 89.7075 169.338 89.7075 169.73V169.826H91.9155V169.718C91.9155 169.334 91.8275 169.026 91.6515 168.794C91.4835 168.554 91.2195 168.434 90.8595 168.434ZM96.7137 173.57C96.0977 173.57 95.6297 173.414 95.3097 173.102C94.9977 172.79 94.8417 172.334 94.8417 171.734V168.65H93.9537V167.27H94.3977C94.6377 167.27 94.8017 167.214 94.8897 167.102C94.9777 166.982 95.0217 166.814 95.0217 166.598V165.566H96.6177V167.27H97.8657V168.65H96.6177V172.19H97.7697V173.57H96.7137ZM100.749 173.57C100.133 173.57 99.6649 173.414 99.3449 173.102C99.0329 172.79 98.8769 172.334 98.8769 171.734V168.65H97.9889V167.27H98.4329C98.6729 167.27 98.8369 167.214 98.9249 167.102C99.0129 166.982 99.0569 166.814 99.0569 166.598V165.566H100.653V167.27H101.901V168.65H100.653V172.19H101.805V173.57H100.749ZM105.216 173.714C104.736 173.714 104.308 173.638 103.932 173.486C103.556 173.326 103.236 173.106 102.972 172.826C102.716 172.538 102.52 172.19 102.384 171.782C102.256 171.374 102.192 170.918 102.192 170.414C102.192 169.918 102.256 169.47 102.384 169.07C102.512 168.662 102.7 168.314 102.948 168.026C103.204 167.738 103.516 167.518 103.884 167.366C104.252 167.206 104.672 167.126 105.144 167.126C105.664 167.126 106.108 167.214 106.476 167.39C106.852 167.566 107.156 167.802 107.388 168.098C107.628 168.394 107.8 168.738 107.904 169.13C108.016 169.514 108.072 169.918 108.072 170.342V170.87H104.028V170.966C104.028 171.382 104.14 171.714 104.364 171.962C104.588 172.202 104.94 172.322 105.42 172.322C105.788 172.322 106.088 172.25 106.32 172.106C106.552 171.954 106.768 171.774 106.968 171.566L107.856 172.67C107.576 172.998 107.208 173.254 106.752 173.438C106.304 173.622 105.792 173.714 105.216 173.714ZM105.18 168.434C104.82 168.434 104.536 168.554 104.328 168.794C104.128 169.026 104.028 169.338 104.028 169.73V169.826H106.236V169.718C106.236 169.334 106.148 169.026 105.972 168.794C105.804 168.554 105.54 168.434 105.18 168.434ZM111.258 165.194H115.326C116.022 165.194 116.562 165.39 116.946 165.782C117.338 166.174 117.534 166.694 117.534 167.342C117.534 167.662 117.49 167.934 117.402 168.158C117.322 168.382 117.21 168.566 117.066 168.71C116.93 168.854 116.766 168.962 116.574 169.034C116.39 169.098 116.19 169.134 115.974 169.142V169.214C116.174 169.214 116.382 169.25 116.598 169.322C116.822 169.394 117.026 169.51 117.21 169.67C117.394 169.822 117.546 170.022 117.666 170.27C117.794 170.518 117.858 170.822 117.858 171.182C117.858 171.51 117.802 171.822 117.69 172.118C117.586 172.406 117.438 172.658 117.246 172.874C117.054 173.09 116.826 173.262 116.562 173.39C116.298 173.51 116.01 173.57 115.698 173.57H111.258V165.194ZM113.082 172.034H115.182C115.422 172.034 115.61 171.97 115.746 171.842C115.89 171.706 115.962 171.518 115.962 171.278V170.87C115.962 170.63 115.89 170.446 115.746 170.318C115.61 170.182 115.422 170.114 115.182 170.114H113.082V172.034ZM113.082 168.626H114.894C115.134 168.626 115.322 168.558 115.458 168.422C115.594 168.286 115.662 168.098 115.662 167.858V167.498C115.662 167.258 115.594 167.07 115.458 166.934C115.322 166.798 115.134 166.73 114.894 166.73H113.082V168.626ZM120.43 173.57C119.822 173.57 119.374 173.422 119.086 173.126C118.806 172.83 118.666 172.402 118.666 171.842V164.69H120.442V172.19H121.234V173.57H120.43ZM126.455 173.57C126.135 173.57 125.867 173.47 125.651 173.27C125.443 173.07 125.311 172.802 125.255 172.466H125.183C125.087 172.874 124.875 173.186 124.547 173.402C124.219 173.61 123.815 173.714 123.335 173.714C122.703 173.714 122.219 173.546 121.883 173.21C121.547 172.874 121.379 172.43 121.379 171.878C121.379 171.214 121.619 170.722 122.099 170.402C122.587 170.074 123.247 169.91 124.079 169.91H125.075V169.514C125.075 169.21 124.995 168.97 124.835 168.794C124.675 168.61 124.407 168.518 124.031 168.518C123.679 168.518 123.399 168.594 123.191 168.746C122.983 168.898 122.811 169.07 122.675 169.262L121.619 168.326C121.875 167.95 122.195 167.658 122.579 167.45C122.971 167.234 123.499 167.126 124.163 167.126C125.059 167.126 125.731 167.322 126.179 167.714C126.627 168.106 126.851 168.678 126.851 169.43V172.19H127.439V173.57H126.455ZM123.995 172.478C124.291 172.478 124.543 172.414 124.751 172.286C124.967 172.158 125.075 171.95 125.075 171.662V170.918H124.211C123.515 170.918 123.167 171.154 123.167 171.626V171.806C123.167 172.038 123.239 172.21 123.383 172.322C123.527 172.426 123.731 172.478 123.995 172.478ZM130.675 173.714C130.203 173.714 129.783 173.638 129.415 173.486C129.047 173.326 128.739 173.106 128.491 172.826C128.243 172.538 128.055 172.19 127.927 171.782C127.799 171.374 127.735 170.918 127.735 170.414C127.735 169.91 127.799 169.458 127.927 169.058C128.055 168.65 128.243 168.302 128.491 168.014C128.739 167.726 129.047 167.506 129.415 167.354C129.783 167.202 130.203 167.126 130.675 167.126C131.315 167.126 131.847 167.27 132.271 167.558C132.703 167.846 133.011 168.25 133.195 168.77L131.755 169.394C131.699 169.154 131.583 168.95 131.407 168.782C131.231 168.614 130.987 168.53 130.675 168.53C130.315 168.53 130.043 168.65 129.859 168.89C129.675 169.122 129.583 169.438 129.583 169.838V171.014C129.583 171.414 129.675 171.73 129.859 171.962C130.043 172.194 130.315 172.31 130.675 172.31C130.995 172.31 131.247 172.226 131.431 172.058C131.623 171.882 131.763 171.654 131.851 171.374L133.231 171.974C133.023 172.574 132.699 173.014 132.259 173.294C131.827 173.574 131.299 173.714 130.675 173.714ZM133.83 164.69H135.606V169.934H135.678L136.458 168.77L137.718 167.27H139.686L137.586 169.682L139.926 173.57H137.814L136.398 170.906L135.606 171.794V173.57H133.83V164.69Z" fill="white"/>
<g filter="url(#filter1_d_203_2336)">
<path d="M309.856 169.518C310.952 169.518 311.825 169.959 312.474 170.841C313.127 171.718 313.454 173.018 313.454 174.74C313.454 176.453 313.129 177.748 312.481 178.625C311.832 179.498 310.952 179.934 309.842 179.934C308.736 179.934 307.858 179.5 307.21 178.632C306.561 177.759 306.237 176.469 306.237 174.761C306.237 173.608 306.386 172.642 306.685 171.863C306.983 171.084 307.403 170.498 307.945 170.106C308.486 169.714 309.123 169.518 309.856 169.518ZM309.856 178.814C310.579 178.814 311.125 178.497 311.494 177.862C311.867 177.223 312.054 176.184 312.054 174.747C312.054 173.282 311.865 172.227 311.487 171.583C311.113 170.934 310.567 170.61 309.849 170.61C309.135 170.61 308.584 170.937 308.197 171.59C307.814 172.239 307.623 173.291 307.623 174.747C307.623 176.18 307.814 177.216 308.197 177.855C308.579 178.494 309.132 178.814 309.856 178.814ZM316.241 179.78V171.723H314.288V170.876C314.894 170.876 315.366 170.832 315.702 170.743C316.038 170.654 316.276 170.519 316.416 170.337C316.56 170.155 316.64 169.929 316.654 169.658H317.578V179.78H316.241ZM319.027 180.319L322.527 169.658H323.535L320.028 180.319H319.027ZM324.114 179.78V178.989V178.576C324.114 178.058 324.21 177.61 324.401 177.232C324.597 176.854 324.854 176.525 325.171 176.245C325.493 175.96 325.843 175.706 326.221 175.482C326.604 175.258 326.984 175.043 327.362 174.838C327.745 174.628 328.095 174.411 328.412 174.187C328.729 173.958 328.984 173.702 329.175 173.417C329.371 173.128 329.469 172.787 329.469 172.395C329.469 171.882 329.287 171.464 328.923 171.142C328.564 170.82 328.076 170.659 327.46 170.659C326.797 170.659 326.265 170.846 325.864 171.219C325.463 171.592 325.236 172.089 325.185 172.71H323.897C323.911 172.127 324.056 171.595 324.331 171.114C324.606 170.629 325.01 170.241 325.542 169.952C326.074 169.663 326.73 169.518 327.509 169.518C328.186 169.518 328.774 169.639 329.273 169.882C329.772 170.12 330.157 170.456 330.428 170.89C330.703 171.319 330.841 171.821 330.841 172.395C330.841 172.918 330.745 173.366 330.554 173.739C330.363 174.112 330.108 174.437 329.791 174.712C329.478 174.983 329.135 175.225 328.762 175.44C328.389 175.655 328.013 175.862 327.635 176.063C327.257 176.259 326.912 176.467 326.599 176.686C326.286 176.901 326.034 177.148 325.843 177.428C325.652 177.708 325.556 178.042 325.556 178.429V178.632H330.897V179.78H324.114ZM335.72 169.518C336.28 169.518 336.796 169.623 337.267 169.833C337.743 170.043 338.137 170.344 338.45 170.736C338.763 171.128 338.956 171.602 339.031 172.157H337.813C337.678 171.676 337.433 171.296 337.078 171.016C336.723 170.736 336.278 170.596 335.741 170.596C335.144 170.596 334.644 170.766 334.243 171.107C333.846 171.443 333.557 171.938 333.375 172.591C333.193 173.24 333.13 174.038 333.186 174.985C333.312 174.644 333.503 174.346 333.76 174.089C334.021 173.828 334.325 173.627 334.67 173.487C335.015 173.342 335.389 173.27 335.79 173.27C336.457 173.27 337.041 173.401 337.54 173.662C338.039 173.919 338.429 174.287 338.709 174.768C338.989 175.244 339.129 175.813 339.129 176.476C339.129 177.153 338.984 177.752 338.695 178.275C338.41 178.793 338.004 179.199 337.477 179.493C336.95 179.787 336.327 179.934 335.608 179.934C334.824 179.934 334.143 179.731 333.564 179.325C332.99 178.919 332.544 178.34 332.227 177.589C331.914 176.833 331.758 175.928 331.758 174.873C331.758 173.79 331.91 172.848 332.213 172.045C332.521 171.242 332.969 170.622 333.557 170.183C334.145 169.74 334.866 169.518 335.72 169.518ZM335.58 174.32C335.211 174.32 334.857 174.409 334.516 174.586C334.18 174.759 333.905 174.987 333.69 175.272C333.48 175.557 333.375 175.872 333.375 176.217C333.37 176.73 333.459 177.188 333.641 177.589C333.828 177.986 334.089 178.298 334.425 178.527C334.761 178.751 335.151 178.863 335.594 178.863C336.009 178.863 336.378 178.765 336.7 178.569C337.022 178.373 337.274 178.1 337.456 177.75C337.643 177.4 337.736 176.996 337.736 176.539C337.736 176.077 337.652 175.68 337.484 175.349C337.321 175.018 337.078 174.763 336.756 174.586C336.434 174.409 336.042 174.32 335.58 174.32Z" fill="white"/>
</g>
<g filter="url(#filter2_d_203_2336)">
<path d="M97.4892 132.212L95.4492 128.816L93.3972 132.26L91.2732 130.772L93.8412 127.736L90.1452 126.728L90.9972 124.4L94.4772 125.948L94.1892 122.072H96.7692L96.4092 125.972L99.9492 124.388L100.705 126.74L97.1172 127.736L99.6372 130.724L97.4892 132.212ZM109.7 132.212L107.66 128.816L105.608 132.26L103.484 130.772L106.052 127.736L102.356 126.728L103.208 124.4L106.688 125.948L106.4 122.072H108.98L108.62 125.972L112.16 124.388L112.916 126.74L109.328 127.736L111.848 130.724L109.7 132.212ZM121.911 132.212L119.871 128.816L117.819 132.26L115.695 130.772L118.263 127.736L114.567 126.728L115.419 124.4L118.899 125.948L118.611 122.072H121.191L120.831 125.972L124.371 124.388L125.127 126.74L121.539 127.736L124.059 130.724L121.911 132.212ZM134.122 132.212L132.082 128.816L130.03 132.26L127.906 130.772L130.474 127.736L126.778 126.728L127.63 124.4L131.11 125.948L130.822 122.072H133.402L133.042 125.972L136.582 124.388L137.338 126.74L133.75 127.736L136.27 130.724L134.122 132.212ZM151.231 132.212L149.191 128.816L147.139 132.26L145.015 130.772L147.583 127.736L143.887 126.728L144.739 124.4L148.219 125.948L147.931 122.072H150.511L150.151 125.972L153.691 124.388L154.447 126.74L150.859 127.736L153.379 130.724L151.231 132.212ZM163.442 132.212L161.402 128.816L159.35 132.26L157.226 130.772L159.794 127.736L156.098 126.728L156.95 124.4L160.43 125.948L160.142 122.072H162.722L162.362 125.972L165.902 124.388L166.658 126.74L163.07 127.736L165.59 130.724L163.442 132.212ZM175.653 132.212L173.613 128.816L171.561 132.26L169.437 130.772L172.005 127.736L168.309 126.728L169.161 124.4L172.641 125.948L172.353 122.072H174.933L174.573 125.972L178.113 124.388L178.869 126.74L175.281 127.736L177.801 130.724L175.653 132.212ZM187.864 132.212L185.824 128.816L183.772 132.26L181.648 130.772L184.216 127.736L180.52 126.728L181.372 124.4L184.852 125.948L184.564 122.072H187.144L186.784 125.972L190.324 124.388L191.08 126.74L187.492 127.736L190.012 130.724L187.864 132.212ZM204.974 132.212L202.934 128.816L200.882 132.26L198.758 130.772L201.326 127.736L197.63 126.728L198.482 124.4L201.962 125.948L201.674 122.072H204.254L203.894 125.972L207.434 124.388L208.19 126.74L204.602 127.736L207.122 130.724L204.974 132.212ZM217.185 132.212L215.145 128.816L213.093 132.26L210.969 130.772L213.537 127.736L209.841 126.728L210.693 124.4L214.173 125.948L213.885 122.072H216.465L216.105 125.972L219.645 124.388L220.401 126.74L216.813 127.736L219.333 130.724L217.185 132.212ZM229.395 132.212L227.355 128.816L225.303 132.26L223.179 130.772L225.747 127.736L222.051 126.728L222.903 124.4L226.383 125.948L226.095 122.072H228.675L228.315 125.972L231.855 124.388L232.611 126.74L229.023 127.736L231.543 130.724L229.395 132.212ZM241.606 132.212L239.566 128.816L237.514 132.26L235.39 130.772L237.958 127.736L234.262 126.728L235.114 124.4L238.594 125.948L238.306 122.072H240.886L240.526 125.972L244.066 124.388L244.822 126.74L241.234 127.736L243.754 130.724L241.606 132.212Z" fill="white"/>
</g>
<g filter="url(#filter3_d_203_2336)">
<path d="M255.922 133.424V123.065H253.411V121.976C254.191 121.976 254.797 121.919 255.229 121.805C255.661 121.691 255.967 121.517 256.147 121.283C256.333 121.049 256.435 120.758 256.453 120.41H257.641V133.424H255.922ZM261.02 133.424V132.407V131.876C261.02 131.21 261.143 130.634 261.389 130.148C261.641 129.662 261.971 129.239 262.379 128.879C262.793 128.513 263.243 128.186 263.729 127.898C264.221 127.61 264.71 127.334 265.196 127.07C265.688 126.8 266.138 126.521 266.546 126.233C266.954 125.939 267.281 125.609 267.527 125.243C267.779 124.871 267.905 124.433 267.905 123.929C267.905 123.269 267.671 122.732 267.203 122.318C266.741 121.904 266.114 121.697 265.322 121.697C264.47 121.697 263.786 121.937 263.27 122.417C262.754 122.897 262.463 123.536 262.397 124.334H260.741C260.759 123.584 260.945 122.9 261.299 122.282C261.653 121.658 262.172 121.16 262.856 120.788C263.54 120.416 264.383 120.23 265.385 120.23C266.255 120.23 267.011 120.386 267.653 120.698C268.295 121.004 268.79 121.436 269.138 121.994C269.492 122.546 269.669 123.191 269.669 123.929C269.669 124.601 269.546 125.177 269.3 125.657C269.054 126.137 268.727 126.554 268.319 126.908C267.917 127.256 267.476 127.568 266.996 127.844C266.516 128.12 266.033 128.387 265.547 128.645C265.061 128.897 264.617 129.164 264.215 129.446C263.813 129.722 263.489 130.04 263.243 130.4C262.997 130.76 262.874 131.189 262.874 131.687V131.948H269.741V133.424H261.02ZM271.662 124.199C271.662 123.359 271.866 122.645 272.274 122.057C272.682 121.463 273.225 121.01 273.903 120.698C274.587 120.386 275.34 120.23 276.162 120.23C277.062 120.23 277.857 120.362 278.547 120.626C279.237 120.884 279.777 121.262 280.167 121.76C280.557 122.258 280.752 122.867 280.752 123.587C280.752 124.229 280.548 124.811 280.14 125.333C279.732 125.849 279.108 126.254 278.268 126.548C278.838 126.704 279.336 126.932 279.762 127.232C280.188 127.532 280.518 127.901 280.752 128.339C280.986 128.771 281.103 129.269 281.103 129.833C281.103 130.427 280.977 130.961 280.725 131.435C280.479 131.903 280.131 132.302 279.681 132.632C279.231 132.956 278.7 133.205 278.088 133.379C277.476 133.547 276.81 133.628 276.09 133.622C275.196 133.616 274.407 133.451 273.723 133.127C273.045 132.803 272.511 132.35 272.121 131.768C271.731 131.18 271.521 130.484 271.491 129.68H273.156C273.282 130.49 273.612 131.111 274.146 131.543C274.68 131.975 275.349 132.191 276.153 132.191C276.789 132.191 277.344 132.092 277.818 131.894C278.292 131.69 278.658 131.411 278.916 131.057C279.174 130.703 279.303 130.289 279.303 129.815C279.303 129.293 279.159 128.852 278.871 128.492C278.583 128.132 278.19 127.859 277.692 127.673C277.194 127.481 276.639 127.382 276.027 127.376L274.857 127.349V125.936L275.973 125.909C276.543 125.897 277.053 125.789 277.503 125.585C277.953 125.375 278.307 125.102 278.565 124.766C278.829 124.424 278.961 124.049 278.961 123.641C278.961 123.281 278.85 122.948 278.628 122.642C278.406 122.33 278.085 122.081 277.665 121.895C277.251 121.709 276.747 121.616 276.153 121.616C275.685 121.616 275.238 121.709 274.812 121.895C274.386 122.075 274.035 122.354 273.759 122.732C273.483 123.11 273.336 123.599 273.318 124.199H271.662ZM288.833 120.41H290.525V128.636H292.685V130.103H290.525V133.424H288.896V130.103H282.767V128.582L288.833 120.41ZM284.36 128.636H288.86V122.597L284.36 128.636Z" fill="white"/>
</g>
<path d="M96.5893 80.6129H109.575C111.784 80.6129 113.575 82.4038 113.575 84.6129V90.9474V98.897V105.231C113.575 107.441 111.784 109.231 109.575 109.231H96.5893H85.2653H72.2793C70.0702 109.231 68.2793 107.441 68.2793 105.231V98.897V90.9474V84.6129C68.2793 82.4038 70.0702 80.6129 72.2793 80.6129H85.2653H96.5893Z" fill="#F6C859"/>
<path d="M85.2653 80.6129L90.9273 85.7801M85.2653 80.6129H96.5893M85.2653 80.6129H72.2793C70.0702 80.6129 68.2793 82.4038 68.2793 84.6129V90.9474M90.9273 85.7801L96.5893 80.6129M90.9273 85.7801V90.9474H86.5719M96.5893 80.6129H109.575C111.784 80.6129 113.575 82.4038 113.575 84.6129V90.9474M85.2653 109.231H72.2793C70.0702 109.231 68.2793 107.441 68.2793 105.231V98.897M85.2653 109.231L90.9273 104.064M85.2653 109.231H96.5893M90.9273 104.064L96.5893 109.231M90.9273 104.064V98.897M96.5893 109.231H109.575C111.784 109.231 113.575 107.441 113.575 105.231V98.897M90.9273 98.897H95.2827M90.9273 98.897H86.5719M68.2793 98.897V90.9474M68.2793 98.897H86.5719M113.575 98.897H95.2827M113.575 98.897V90.9474M68.2793 90.9474H86.5719M86.5719 90.9474V98.897M95.2827 98.897V90.9474H113.575" stroke="#7D662D"/>
<path fill-rule="evenodd" clip-rule="evenodd" d="M326.776 79.7954C331.886 79.7954 336.03 76.5006 336.03 72.4363C336.03 68.372 331.886 65.0773 326.776 65.0773C321.665 65.0773 317.521 68.372 317.521 72.4363C317.521 76.5006 321.665 79.7954 326.776 79.7954Z" fill="#F79E1B"/>
<path fill-rule="evenodd" clip-rule="evenodd" d="M315.087 79.7954C320.198 79.7954 324.341 76.5006 324.341 72.4363C324.341 68.372 320.198 65.0773 315.087 65.0773C309.976 65.0773 305.833 68.372 305.833 72.4363C305.833 76.5006 309.976 79.7954 315.087 79.7954Z" fill="#EB001B"/>
<path fill-rule="evenodd" clip-rule="evenodd" d="M320.932 66.7303C318.851 68.0797 317.522 70.1347 317.522 72.4366C317.522 74.7382 318.851 76.7931 320.932 78.1425C323.013 76.7931 324.342 74.7381 324.342 72.4363C324.342 70.1346 323.013 68.0797 320.932 66.7303Z" fill="#FF5F00"/>
<path d="M70.2111 61.5244H74.2791C74.9751 61.5244 75.5151 61.7204 75.8991 62.1124C76.2911 62.5044 76.4871 63.0244 76.4871 63.6724C76.4871 63.9924 76.4431 64.2644 76.3551 64.4884C76.2751 64.7124 76.1631 64.8964 76.0191 65.0404C75.8831 65.1844 75.7191 65.2924 75.5271 65.3644C75.3431 65.4284 75.1431 65.4644 74.9271 65.4724V65.5444C75.1271 65.5444 75.3351 65.5804 75.5511 65.6524C75.7751 65.7244 75.9791 65.8404 76.1631 66.0004C76.3471 66.1524 76.4991 66.3524 76.6191 66.6004C76.7471 66.8484 76.8111 67.1524 76.8111 67.5124C76.8111 67.8404 76.7551 68.1524 76.6431 68.4484C76.5391 68.7364 76.3911 68.9884 76.1991 69.2044C76.0071 69.4204 75.7791 69.5924 75.5151 69.7204C75.2511 69.8404 74.9631 69.9004 74.6511 69.9004H70.2111V61.5244ZM72.0351 68.3644H74.1351C74.3751 68.3644 74.5631 68.3004 74.6991 68.1724C74.8431 68.0364 74.9151 67.8484 74.9151 67.6084V67.2004C74.9151 66.9604 74.8431 66.7764 74.6991 66.6484C74.5631 66.5124 74.3751 66.4444 74.1351 66.4444H72.0351V68.3644ZM72.0351 64.9564H73.8471C74.0871 64.9564 74.2751 64.8884 74.4111 64.7524C74.5471 64.6164 74.6151 64.4284 74.6151 64.1884V63.8284C74.6151 63.5884 74.5471 63.4004 74.4111 63.2644C74.2751 63.1284 74.0871 63.0604 73.8471 63.0604H72.0351V64.9564ZM82.6992 69.9004L82.0992 67.9084H79.3032L78.7032 69.9004H76.8552L79.6152 61.5244H81.8712L84.5952 69.9004H82.6992ZM80.7192 63.1804H80.6592L79.7352 66.3604H81.6552L80.7192 63.1804ZM87.8101 65.9404L87.0061 64.2604H86.9701V69.9004H85.2541V61.5244H87.2461L89.5381 65.4844L90.3421 67.1644H90.3781V61.5244H92.0941V69.9004H90.1021L87.8101 65.9404ZM96.3537 66.2524L95.2617 67.5724V69.9004H93.4377V61.5244H95.2617V65.5084H95.3337L96.5217 63.8884L98.4057 61.5244H100.47L97.6497 64.9684L100.722 69.9004H98.5737L96.3537 66.2524Z" fill="white"/>
<defs>
<filter id="filter0_d_203_2336" x="0" y="0" width="406" height="252" filterUnits="userSpaceOnUse" color-interpolation-filters="sRGB">
<feFlood flood-opacity="0" result="BackgroundImageFix"/>
<feColorMatrix in="SourceAlpha" type="matrix" values="0 0 0 0 0 0 0 0 0 0 0 0 0 0 0 0 0 0 127 0" result="hardAlpha"/>
<feOffset dy="4"/>
<feGaussianBlur stdDeviation="25"/>
<feComposite in2="hardAlpha" operator="out"/>
<feColorMatrix type="matrix" values="0 0 0 0 0 0 0 0 0 0 0 0 0 0 0 0 0 0 0.05 0"/>
<feBlend mode="normal" in2="BackgroundImageFix" result="effect1_dropShadow_203_2336"/>
<feBlend mode="normal" in="SourceGraphic" in2="effect1_dropShadow_203_2336" result="shape"/>
</filter>
<filter id="filter1_d_203_2336" x="302.237" y="167.518" width="40.8923" height="18.801" filterUnits="userSpaceOnUse" color-interpolation-filters="sRGB">
<feFlood flood-opacity="0" result="BackgroundImageFix"/>
<feColorMatrix in="SourceAlpha" type="matrix" values="0 0 0 0 0 0 0 0 0 0 0 0 0 0 0 0 0 0 127 0" result="hardAlpha"/>
<feOffset dy="2"/>
<feGaussianBlur stdDeviation="2"/>
<feColorMatrix type="matrix" values="0 0 0 0 0 0 0 0 0 0 0 0 0 0 0 0 0 0 0.25 0"/>
<feBlend mode="normal" in2="BackgroundImageFix" result="effect1_dropShadow_203_2336"/>
<feBlend mode="normal" in="SourceGraphic" in2="effect1_dropShadow_203_2336" result="shape"/>
</filter>
<filter id="filter2_d_203_2336" x="86.1453" y="120.072" width="162.677" height="18.188" filterUnits="userSpaceOnUse" color-interpolation-filters="sRGB">
<feFlood flood-opacity="0" result="BackgroundImageFix"/>
<feColorMatrix in="SourceAlpha" type="matrix" values="0 0 0 0 0 0 0 0 0 0 0 0 0 0 0 0 0 0 127 0" result="hardAlpha"/>
<feOffset dy="2"/>
<feGaussianBlur stdDeviation="2"/>
<feColorMatrix type="matrix" values="0 0 0 0 0 0 0 0 0 0 0 0 0 0 0 0 0 0 0.25 0"/>
<feBlend mode="normal" in2="BackgroundImageFix" result="effect1_dropShadow_203_2336"/>
<feBlend mode="normal" in="SourceGraphic" in2="effect1_dropShadow_203_2336" result="shape"/>
</filter>
<filter id="filter3_d_203_2336" x="249.411" y="118.23" width="47.2734" height="21.401" filterUnits="userSpaceOnUse" color-interpolation-filters="sRGB">
<feFlood flood-opacity="0" result="BackgroundImageFix"/>
<feColorMatrix in="SourceAlpha" type="matrix" values="0 0 0 0 0 0 0 0 0 0 0 0 0 0 0 0 0 0 127 0" result="hardAlpha"/>
<feOffset dy="2"/>
<feGaussianBlur stdDeviation="2"/>
<feColorMatrix type="matrix" values="0 0 0 0 0 0 0 0 0 0 0 0 0 0 0 0 0 0 0.25 0"/>
<feBlend mode="normal" in2="BackgroundImageFix" result="effect1_dropShadow_203_2336"/>
<feBlend mode="normal" in="SourceGraphic" in2="effect1_dropShadow_203_2336" result="shape"/>
</filter>
</defs>
</svg>
