<svg width="20" height="20" viewBox="0 0 20 20" fill="none" xmlns="http://www.w3.org/2000/svg">
<path d="M8.46663 9.05841C8.3833 9.05008 8.2833 9.05008 8.19163 9.05841C6.2083 8.99175 4.6333 7.36675 4.6333 5.36675C4.6333 3.32508 6.2833 1.66675 8.3333 1.66675C10.375 1.66675 12.0333 3.32508 12.0333 5.36675C12.025 7.36675 10.45 8.99175 8.46663 9.05841Z" stroke="#9D086D" stroke-width="1.5" stroke-linecap="round" stroke-linejoin="round"/>
<path d="M4.29985 12.1333C2.28319 13.4833 2.28319 15.6833 4.29985 17.0249C6.59152 18.5583 10.3499 18.5583 12.6415 17.0249C14.6582 15.6749 14.6582 13.4749 12.6415 12.1333C10.3582 10.6083 6.59985 10.6083 4.29985 12.1333Z" stroke="#9D086D" stroke-width="1.5" stroke-linecap="round" stroke-linejoin="round"/>
</svg>
