<svg width="20" height="20" viewBox="0 0 20 20" fill="none" xmlns="http://www.w3.org/2000/svg">
<g id="vuesax/linear/clipboard-tick">
<g id="clipboard-tick">
<path id="Vector" d="M7.7583 12.2501L9.0083 13.5001L12.3416 10.1667" stroke="#9D086D" stroke-width="1.5" stroke-linecap="round" stroke-linejoin="round"/>
<path id="Vector_2" d="M8.33317 5.00008H11.6665C13.3332 5.00008 13.3332 4.16675 13.3332 3.33341C13.3332 1.66675 12.4998 1.66675 11.6665 1.66675H8.33317C7.49984 1.66675 6.6665 1.66675 6.6665 3.33341C6.6665 5.00008 7.49984 5.00008 8.33317 5.00008Z" stroke="#9D086D" stroke-width="1.5" stroke-miterlimit="10" stroke-linecap="round" stroke-linejoin="round"/>
<path id="Vector_3" d="M13.3333 3.3501C16.1083 3.5001 17.5 4.5251 17.5 8.33343V13.3334C17.5 16.6668 16.6667 18.3334 12.5 18.3334H7.5C3.33333 18.3334 2.5 16.6668 2.5 13.3334V8.33343C2.5 4.53343 3.89167 3.5001 6.66667 3.3501" stroke="#9D086D" stroke-width="1.5" stroke-miterlimit="10" stroke-linecap="round" stroke-linejoin="round"/>
</g>
</g>
</svg>
