<svg width="20" height="20" viewBox="0 0 20 20" fill="none" xmlns="http://www.w3.org/2000/svg">
<g id="vuesax/linear/video">
<g id="video">
<path id="Vector" d="M10.4417 17.0166H5.17502C2.54169 17.0166 1.66669 15.2666 1.66669 13.5083V6.49161C1.66669 3.85828 2.54169 2.98328 5.17502 2.98328H10.4417C13.075 2.98328 13.95 3.85828 13.95 6.49161V13.5083C13.95 16.1416 13.0667 17.0166 10.4417 17.0166Z" stroke="#3E3C3D" stroke-width="1.5" stroke-linecap="round" stroke-linejoin="round"/>
<path id="Vector_2" d="M16.2667 14.25L13.95 12.625V7.36665L16.2667 5.74165C17.4 4.94999 18.3333 5.43332 18.3333 6.82499V13.175C18.3333 14.5667 17.4 15.05 16.2667 14.25Z" stroke="#3E3C3D" stroke-width="1.5" stroke-linecap="round" stroke-linejoin="round"/>
<path id="Vector_3" d="M9.58331 9.16663C10.2737 9.16663 10.8333 8.60698 10.8333 7.91663C10.8333 7.22627 10.2737 6.66663 9.58331 6.66663C8.89296 6.66663 8.33331 7.22627 8.33331 7.91663C8.33331 8.60698 8.89296 9.16663 9.58331 9.16663Z" stroke="#3E3C3D" stroke-width="1.5" stroke-linecap="round" stroke-linejoin="round"/>
</g>
</g>
</svg>
